<?xml version="1.0" standalone="no"?>
<!DOCTYPE svg PUBLIC "-//W3C//DTD SVG 20010904//EN"
 "http://www.w3.org/TR/2001/REC-SVG-20010904/DTD/svg10.dtd">
<svg version="1.0" xmlns="http://www.w3.org/2000/svg"
 width="160.000000pt" height="160.000000pt" viewBox="0 0 160.000000 160.000000"
 preserveAspectRatio="xMidYMid meet">
<metadata>
Created by potrace 1.11, written by Peter Selinger 2001-2013
</metadata>
<g transform="translate(0.000000,160.000000) scale(0.100000,-0.100000)"
fill="#000000" stroke="none">
<path d="M640 1582 c0 -15 -2 -15 -10 -2 -5 8 -10 10 -10 5 0 -6 -8 -11 -18
-12 -33 -3 -47 -8 -60 -23 -8 -8 -11 -9 -7 -2 3 6 2 12 -3 12 -6 0 -12 -6 -15
-14 -3 -9 -15 -12 -31 -9 -19 4 -26 1 -26 -10 0 -8 -13 -17 -31 -21 -17 -3
-28 -10 -25 -15 3 -5 -1 -12 -10 -15 -9 -3 -12 -2 -8 5 3 6 -3 5 -14 -2 -12
-7 -19 -15 -16 -18 2 -3 -13 -13 -33 -22 -21 -10 -31 -19 -23 -19 9 -1 5 -5
-8 -11 -13 -5 -20 -13 -17 -19 4 -6 3 -10 -2 -9 -20 3 -34 -2 -28 -11 3 -5 1
-10 -4 -10 -6 0 -11 -8 -11 -17 0 -15 -2 -16 -10 -3 -9 13 -10 13 -10 0 0 -9
-9 -22 -19 -30 -11 -7 -18 -17 -15 -22 3 -4 -2 -11 -10 -14 -9 -3 -16 -13 -16
-21 0 -8 -5 -11 -11 -7 -8 5 -10 -1 -7 -20 4 -21 3 -24 -8 -15 -10 8 -12 6 -9
-10 2 -12 0 -19 -6 -16 -9 6 -11 1 -13 -27 -1 -7 -7 -19 -13 -26 -7 -7 -13
-22 -13 -33 0 -11 -4 -18 -9 -15 -5 4 -8 -5 -7 -19 2 -15 -1 -22 -7 -18 -6 4
-8 0 -4 -10 3 -10 3 -17 -1 -17 -4 0 -8 -9 -9 -20 -1 -13 2 -18 10 -14 8 5 7
2 -1 -7 -11 -12 -14 -12 -21 0 -6 9 -9 4 -9 -15 0 -16 5 -32 12 -36 8 -6 7 -8
-1 -8 -10 0 -13 -30 -13 -118 0 -81 4 -122 13 -131 10 -11 9 -13 -1 -7 -6 4
-12 2 -12 -3 0 -6 5 -11 10 -11 6 0 10 -7 10 -16 0 -9 -5 -13 -12 -9 -7 4 -2
-3 12 -15 14 -12 18 -18 10 -14 -12 6 -13 5 -4 -7 5 -8 9 -24 8 -36 -1 -15 3
-20 14 -15 10 3 13 1 8 -7 -4 -6 -2 -19 6 -28 11 -14 11 -16 -2 -9 -8 4 -6 0
4 -8 15 -12 16 -16 5 -16 -10 -1 -9 -3 4 -11 12 -7 16 -17 12 -30 -4 -11 -3
-19 2 -18 4 1 15 1 23 0 13 -1 13 -2 0 -11 -13 -8 -12 -10 4 -10 16 0 17 -2 5
-17 -8 -9 -9 -14 -4 -12 11 6 38 -20 43 -42 2 -8 8 -16 13 -18 6 -1 15 -10 22
-18 7 -8 21 -24 32 -36 11 -12 19 -26 17 -31 -2 -5 6 -6 16 -4 15 4 19 0 18
-16 -1 -11 4 -21 9 -21 29 -2 53 -17 48 -31 -3 -9 0 -12 9 -9 8 3 26 -5 41
-19 15 -14 27 -20 27 -14 0 7 7 3 15 -8 8 -11 15 -14 15 -6 0 6 4 12 9 12 5 0
8 -8 7 -17 -1 -12 6 -18 19 -18 11 0 26 -7 33 -15 8 -8 11 -10 8 -3 -4 6 -2
15 4 18 6 4 10 3 9 -2 -3 -19 2 -33 12 -33 5 0 7 6 3 13 -5 8 -2 8 9 -2 9 -7
17 -10 17 -7 0 4 7 0 16 -9 13 -12 19 -13 30 -4 8 7 18 9 21 5 4 -4 1 -11 -6
-15 -8 -5 55 -9 144 -9 128 -1 160 2 172 14 9 8 22 13 29 10 8 -3 14 0 14 6 0
7 4 7 14 -1 10 -9 15 -8 19 4 4 8 13 12 22 9 10 -4 15 0 15 12 0 15 2 16 9 5
6 -9 11 -10 15 -2 4 6 16 11 27 11 11 0 17 5 14 10 -4 7 3 9 19 6 15 -3 25 -2
22 2 -2 4 2 13 10 20 8 7 14 10 14 7 0 -3 11 2 25 11 14 9 22 21 18 28 -4 6 0
5 9 -2 13 -10 18 -10 24 -1 5 8 3 9 -6 4 -9 -5 -11 -4 -6 3 4 7 13 12 19 12
16 0 47 36 39 45 -4 3 1 3 9 0 10 -4 20 3 29 20 7 14 19 25 27 25 7 0 12 4 10
9 -1 5 7 17 18 26 11 9 13 14 5 10 -9 -4 -7 0 4 9 10 8 15 19 11 25 -4 7 0 8
11 4 12 -4 15 -3 10 6 -5 8 0 20 13 32 12 11 22 24 22 29 1 6 2 14 3 19 0 5 5
13 10 18 5 5 6 3 2 -5 -4 -6 -5 -12 -2 -12 3 0 10 10 17 21 8 15 8 19 0 15
-19 -12 -12 2 12 25 12 12 16 19 10 15 -7 -4 -13 -2 -13 3 0 6 4 11 9 11 5 0
12 7 15 16 3 8 2 12 -4 9 -17 -10 -11 7 8 22 9 8 11 12 5 8 -7 -3 -13 -2 -13
3 0 6 6 12 14 15 9 4 12 14 9 25 -2 11 0 23 6 26 8 5 8 13 1 26 -7 13 -7 21 0
25 14 9 12 48 -2 64 -11 11 -10 12 1 6 11 -6 13 -4 8 8 -3 10 -2 17 3 17 5 0
7 12 5 28 -12 62 -12 78 -2 90 7 9 6 11 -7 6 -19 -7 -20 0 -5 28 6 12 7 18 1
14 -5 -3 -13 1 -16 10 -3 8 -2 12 4 9 16 -10 12 11 -5 25 -8 7 -15 24 -15 39
0 15 -5 32 -12 39 -9 9 -9 12 1 12 7 0 9 5 6 10 -4 6 -11 8 -16 5 -5 -3 -6 1
-3 9 3 9 1 16 -6 16 -6 0 -8 5 -5 10 3 6 1 10 -6 10 -9 0 -9 4 1 15 10 12 8
14 -8 10 -15 -3 -19 1 -15 16 3 10 0 19 -6 19 -6 0 -11 9 -11 21 0 11 -4 18
-8 15 -4 -2 -14 9 -21 25 -7 16 -17 27 -22 23 -5 -3 -9 5 -9 17 0 18 -2 19
-15 9 -13 -11 -14 -10 -9 3 6 17 -17 47 -36 47 -7 0 -9 7 -6 16 3 8 2 12 -4 9
-6 -3 -10 -1 -10 5 0 6 -4 8 -10 5 -5 -3 -10 -1 -10 5 0 6 -4 9 -9 6 -5 -3
-11 4 -14 15 -3 12 -10 18 -16 14 -6 -3 -11 -1 -11 5 0 10 -48 35 -62 32 -5
-1 -8 5 -8 13 0 9 -9 15 -25 15 -14 0 -28 7 -31 15 -4 10 -13 13 -26 9 -13 -4
-18 -2 -14 4 3 5 -1 13 -10 16 -10 4 -13 2 -9 -7 4 -6 -1 -3 -9 7 -12 15 -16
16 -16 5 0 -12 -2 -12 -9 0 -5 7 -14 10 -20 7 -6 -4 -11 0 -12 11 0 11 -3 13
-6 5 -4 -10 -8 -10 -21 0 -12 10 -14 10 -8 1 5 -9 2 -11 -8 -7 -9 3 -14 9 -12
13 3 4 -9 8 -25 9 -22 2 -28 -1 -23 -10 6 -10 5 -10 -8 0 -11 9 -52 12 -137
11 -105 -1 -121 -3 -121 -17z"/>
</g>
</svg>
